<mxfile host="app.diagrams.net" modified="2023-10-22T13:30:18.319Z" agent="Mozilla/5.0 (X11; Ubuntu; Linux x86_64; rv:109.0) Gecko/20100101 Firefox/118.0" etag="CxtSpxeL465Z1SJrH9QC" version="22.0.6" type="device">
  <diagram name="第 1 页" id="3tQ8L7HjznIPXBOHlZmB">
    <mxGraphModel dx="994" dy="545" grid="1" gridSize="10" guides="1" tooltips="1" connect="1" arrows="1" fold="1" page="1" pageScale="1" pageWidth="827" pageHeight="1169" math="0" shadow="0">
      <root>
        <mxCell id="0" />
        <mxCell id="1" parent="0" />
        <mxCell id="3WwGIY_hkS-e4ZyH0D-Z-1" value="" style="shape=table;startSize=0;container=1;collapsible=0;childLayout=tableLayout;fontSize=16;" vertex="1" parent="1">
          <mxGeometry x="320" y="230" width="240" height="80" as="geometry" />
        </mxCell>
        <mxCell id="3WwGIY_hkS-e4ZyH0D-Z-2" value="" style="shape=tableRow;horizontal=0;startSize=0;swimlaneHead=0;swimlaneBody=0;strokeColor=inherit;top=0;left=0;bottom=0;right=0;collapsible=0;dropTarget=0;fillColor=none;points=[[0,0.5],[1,0.5]];portConstraint=eastwest;fontSize=16;" vertex="1" parent="3WwGIY_hkS-e4ZyH0D-Z-1">
          <mxGeometry width="240" height="40" as="geometry" />
        </mxCell>
        <mxCell id="3WwGIY_hkS-e4ZyH0D-Z-3" value="d" style="shape=partialRectangle;html=1;whiteSpace=wrap;connectable=0;strokeColor=inherit;overflow=hidden;fillColor=none;top=0;left=0;bottom=0;right=0;pointerEvents=1;fontSize=16;" vertex="1" parent="3WwGIY_hkS-e4ZyH0D-Z-2">
          <mxGeometry width="60" height="40" as="geometry">
            <mxRectangle width="60" height="40" as="alternateBounds" />
          </mxGeometry>
        </mxCell>
        <mxCell id="3WwGIY_hkS-e4ZyH0D-Z-4" value="1" style="shape=partialRectangle;html=1;whiteSpace=wrap;connectable=0;strokeColor=inherit;overflow=hidden;fillColor=none;top=0;left=0;bottom=0;right=0;pointerEvents=1;fontSize=16;" vertex="1" parent="3WwGIY_hkS-e4ZyH0D-Z-2">
          <mxGeometry x="60" width="60" height="40" as="geometry">
            <mxRectangle width="60" height="40" as="alternateBounds" />
          </mxGeometry>
        </mxCell>
        <mxCell id="3WwGIY_hkS-e4ZyH0D-Z-5" value="0" style="shape=partialRectangle;html=1;whiteSpace=wrap;connectable=0;strokeColor=inherit;overflow=hidden;fillColor=none;top=0;left=0;bottom=0;right=0;pointerEvents=1;fontSize=16;" vertex="1" parent="3WwGIY_hkS-e4ZyH0D-Z-2">
          <mxGeometry x="120" width="60" height="40" as="geometry">
            <mxRectangle width="60" height="40" as="alternateBounds" />
          </mxGeometry>
        </mxCell>
        <mxCell id="3WwGIY_hkS-e4ZyH0D-Z-14" value="0" style="shape=partialRectangle;html=1;whiteSpace=wrap;connectable=0;strokeColor=inherit;overflow=hidden;fillColor=none;top=0;left=0;bottom=0;right=0;pointerEvents=1;fontSize=16;" vertex="1" parent="3WwGIY_hkS-e4ZyH0D-Z-2">
          <mxGeometry x="180" width="60" height="40" as="geometry">
            <mxRectangle width="60" height="40" as="alternateBounds" />
          </mxGeometry>
        </mxCell>
        <mxCell id="3WwGIY_hkS-e4ZyH0D-Z-6" value="" style="shape=tableRow;horizontal=0;startSize=0;swimlaneHead=0;swimlaneBody=0;strokeColor=inherit;top=0;left=0;bottom=0;right=0;collapsible=0;dropTarget=0;fillColor=none;points=[[0,0.5],[1,0.5]];portConstraint=eastwest;fontSize=16;" vertex="1" parent="3WwGIY_hkS-e4ZyH0D-Z-1">
          <mxGeometry y="40" width="240" height="40" as="geometry" />
        </mxCell>
        <mxCell id="3WwGIY_hkS-e4ZyH0D-Z-7" value="1" style="shape=partialRectangle;html=1;whiteSpace=wrap;connectable=0;strokeColor=inherit;overflow=hidden;fillColor=none;top=0;left=0;bottom=0;right=0;pointerEvents=1;fontSize=16;" vertex="1" parent="3WwGIY_hkS-e4ZyH0D-Z-6">
          <mxGeometry width="60" height="40" as="geometry">
            <mxRectangle width="60" height="40" as="alternateBounds" />
          </mxGeometry>
        </mxCell>
        <mxCell id="3WwGIY_hkS-e4ZyH0D-Z-8" value="0" style="shape=partialRectangle;html=1;whiteSpace=wrap;connectable=0;strokeColor=inherit;overflow=hidden;fillColor=none;top=0;left=0;bottom=0;right=0;pointerEvents=1;fontSize=16;" vertex="1" parent="3WwGIY_hkS-e4ZyH0D-Z-6">
          <mxGeometry x="60" width="60" height="40" as="geometry">
            <mxRectangle width="60" height="40" as="alternateBounds" />
          </mxGeometry>
        </mxCell>
        <mxCell id="3WwGIY_hkS-e4ZyH0D-Z-9" value="d" style="shape=partialRectangle;html=1;whiteSpace=wrap;connectable=0;strokeColor=inherit;overflow=hidden;fillColor=none;top=0;left=0;bottom=0;right=0;pointerEvents=1;fontSize=16;" vertex="1" parent="3WwGIY_hkS-e4ZyH0D-Z-6">
          <mxGeometry x="120" width="60" height="40" as="geometry">
            <mxRectangle width="60" height="40" as="alternateBounds" />
          </mxGeometry>
        </mxCell>
        <mxCell id="3WwGIY_hkS-e4ZyH0D-Z-15" value="1" style="shape=partialRectangle;html=1;whiteSpace=wrap;connectable=0;strokeColor=inherit;overflow=hidden;fillColor=none;top=0;left=0;bottom=0;right=0;pointerEvents=1;fontSize=16;" vertex="1" parent="3WwGIY_hkS-e4ZyH0D-Z-6">
          <mxGeometry x="180" width="60" height="40" as="geometry">
            <mxRectangle width="60" height="40" as="alternateBounds" />
          </mxGeometry>
        </mxCell>
        <mxCell id="3WwGIY_hkS-e4ZyH0D-Z-16" value="&lt;font style=&quot;font-size: 16px;&quot;&gt;0&lt;/font&gt;" style="text;html=1;align=center;verticalAlign=middle;resizable=0;points=[];autosize=1;strokeColor=none;fillColor=none;" vertex="1" parent="1">
          <mxGeometry x="285" y="240" width="30" height="30" as="geometry" />
        </mxCell>
        <mxCell id="3WwGIY_hkS-e4ZyH0D-Z-17" value="&lt;font style=&quot;font-size: 16px;&quot;&gt;1&lt;/font&gt;" style="text;html=1;align=center;verticalAlign=middle;resizable=0;points=[];autosize=1;strokeColor=none;fillColor=none;" vertex="1" parent="1">
          <mxGeometry x="285" y="280" width="30" height="30" as="geometry" />
        </mxCell>
        <mxCell id="3WwGIY_hkS-e4ZyH0D-Z-18" value="&lt;font style=&quot;font-size: 16px;&quot;&gt;0&lt;/font&gt;&lt;font style=&quot;font-size: 16px;&quot;&gt;0&lt;/font&gt;" style="text;html=1;align=center;verticalAlign=middle;resizable=0;points=[];autosize=1;strokeColor=none;fillColor=none;" vertex="1" parent="1">
          <mxGeometry x="325" y="200" width="40" height="30" as="geometry" />
        </mxCell>
        <mxCell id="3WwGIY_hkS-e4ZyH0D-Z-19" value="&lt;font style=&quot;font-size: 16px;&quot;&gt;01&lt;/font&gt;" style="text;html=1;align=center;verticalAlign=middle;resizable=0;points=[];autosize=1;strokeColor=none;fillColor=none;" vertex="1" parent="1">
          <mxGeometry x="390" y="200" width="40" height="30" as="geometry" />
        </mxCell>
        <mxCell id="3WwGIY_hkS-e4ZyH0D-Z-20" value="&lt;font style=&quot;font-size: 16px;&quot;&gt;11&lt;/font&gt;" style="text;html=1;align=center;verticalAlign=middle;resizable=0;points=[];autosize=1;strokeColor=none;fillColor=none;" vertex="1" parent="1">
          <mxGeometry x="450" y="200" width="40" height="30" as="geometry" />
        </mxCell>
        <mxCell id="3WwGIY_hkS-e4ZyH0D-Z-21" value="&lt;font style=&quot;font-size: 16px;&quot;&gt;10&lt;/font&gt;" style="text;html=1;align=center;verticalAlign=middle;resizable=0;points=[];autosize=1;strokeColor=none;fillColor=none;" vertex="1" parent="1">
          <mxGeometry x="510" y="200" width="40" height="30" as="geometry" />
        </mxCell>
        <mxCell id="3WwGIY_hkS-e4ZyH0D-Z-22" value="" style="endArrow=none;html=1;rounded=0;exitX=0.004;exitY=0.05;exitDx=0;exitDy=0;exitPerimeter=0;" edge="1" parent="1" source="3WwGIY_hkS-e4ZyH0D-Z-2">
          <mxGeometry width="50" height="50" relative="1" as="geometry">
            <mxPoint x="390" y="310" as="sourcePoint" />
            <mxPoint x="270" y="180" as="targetPoint" />
          </mxGeometry>
        </mxCell>
        <mxCell id="3WwGIY_hkS-e4ZyH0D-Z-23" value="&lt;font style=&quot;font-size: 16px;&quot;&gt;dout[2] dout[1]&lt;/font&gt;" style="text;html=1;align=center;verticalAlign=middle;resizable=0;points=[];autosize=1;strokeColor=none;fillColor=none;" vertex="1" parent="1">
          <mxGeometry x="270" y="170" width="130" height="30" as="geometry" />
        </mxCell>
        <mxCell id="3WwGIY_hkS-e4ZyH0D-Z-24" value="&lt;font style=&quot;font-size: 16px;&quot;&gt;dout[0]&lt;/font&gt;" style="text;html=1;align=center;verticalAlign=middle;resizable=0;points=[];autosize=1;strokeColor=none;fillColor=none;" vertex="1" parent="1">
          <mxGeometry x="230" y="200" width="70" height="30" as="geometry" />
        </mxCell>
        <mxCell id="3WwGIY_hkS-e4ZyH0D-Z-25" value="&lt;font style=&quot;font-size: 16px;&quot;&gt;din&lt;/font&gt;" style="text;html=1;align=center;verticalAlign=middle;resizable=0;points=[];autosize=1;strokeColor=none;fillColor=none;" vertex="1" parent="1">
          <mxGeometry x="225" y="160" width="40" height="30" as="geometry" />
        </mxCell>
        <mxCell id="3WwGIY_hkS-e4ZyH0D-Z-26" value="" style="ellipse;whiteSpace=wrap;html=1;fillColor=none;strokeColor=#FF0000;" vertex="1" parent="1">
          <mxGeometry x="460" y="230" width="80" height="40" as="geometry" />
        </mxCell>
        <mxCell id="3WwGIY_hkS-e4ZyH0D-Z-27" value="" style="ellipse;whiteSpace=wrap;html=1;fillColor=none;strokeColor=#FF0000;" vertex="1" parent="1">
          <mxGeometry x="400" y="270" width="80" height="40" as="geometry" />
        </mxCell>
        <mxCell id="3WwGIY_hkS-e4ZyH0D-Z-28" value="&lt;font style=&quot;font-size: 16px;&quot;&gt;din = (~data[2] | data[0]) &amp;amp; (~data[1] | ~data[0])&lt;/font&gt;" style="text;html=1;align=center;verticalAlign=middle;resizable=0;points=[];autosize=1;strokeColor=none;fillColor=none;" vertex="1" parent="1">
          <mxGeometry x="260" y="330" width="350" height="30" as="geometry" />
        </mxCell>
      </root>
    </mxGraphModel>
  </diagram>
</mxfile>
